COMMENT "Based on codec-terminal-narrow by Chris Cannam."
COMMENT "http://all-day-breakfast.com/cannam/codec.html"
COMMENT "Full stop positioned at the baseline instead of centred."
STARTFONT 2.1
FONT -cannam-codec terminal narrow-medium-r-normal--15-144-75-75-m-57-iso8859-1
SIZE 1 75 75
FONTBOUNDINGBOX 6 13 0 -3
STARTPROPERTIES 9
POINT_SIZE 12
PIXEL_SIZE 15
RESOLUTION_X 75
RESOLUTION_Y 75
FONT_ASCENT 12
FONT_DESCENT 3
AVERAGE_WIDTH 100
SPACING "M"
_XMBDFED_INFO "Edited with xmbdfed 3.4."
ENDPROPERTIES
CHARS 190
STARTCHAR char32
ENCODING 32
SWIDTH -1 0
DWIDTH 6 0
BBX 0 0 0 0
BITMAP
ENDCHAR
STARTCHAR char33
ENCODING 33
SWIDTH -1 0
DWIDTH 6 0
BBX 1 9 3 0
BITMAP
80
80
80
80
80
00
00
80
80
ENDCHAR
STARTCHAR char34
ENCODING 34
SWIDTH -1 0
DWIDTH 6 0
BBX 3 3 2 6
BITMAP
A0
A0
A0
ENDCHAR
STARTCHAR char35
ENCODING 35
SWIDTH -1 0
DWIDTH 6 0
BBX 6 8 0 0
BITMAP
48
48
FC
48
48
FC
48
48
ENDCHAR
STARTCHAR char36
ENCODING 36
SWIDTH -1 0
DWIDTH 6 0
BBX 5 9 1 0
BITMAP
20
78
A0
A0
A8
28
28
F0
20
ENDCHAR
STARTCHAR char37
ENCODING 37
SWIDTH -1 0
DWIDTH 6 0
BBX 6 10 0 -1
BITMAP
40
A0
A4
48
10
20
48
94
14
08
ENDCHAR
STARTCHAR char38
ENCODING 38
SWIDTH -1 0
DWIDTH 6 0
BBX 5 9 1 0
BITMAP
20
50
50
20
68
90
90
90
68
ENDCHAR
STARTCHAR char39
ENCODING 39
SWIDTH -1 0
DWIDTH 6 0
BBX 1 3 3 7
BITMAP
80
80
80
ENDCHAR
STARTCHAR char40
ENCODING 40
SWIDTH -1 0
DWIDTH 6 0
BBX 3 11 3 -1
BITMAP
20
40
40
80
80
80
80
80
40
40
20
ENDCHAR
STARTCHAR char41
ENCODING 41
SWIDTH -1 0
DWIDTH 6 0
BBX 4 11 0 -1
BITMAP
40
20
20
10
10
10
10
10
20
20
40
ENDCHAR
STARTCHAR char42
ENCODING 42
SWIDTH -1 0
DWIDTH 6 0
BBX 5 5 1 2
BITMAP
50
20
D8
20
50
ENDCHAR
STARTCHAR char43
ENCODING 43
SWIDTH -1 0
DWIDTH 6 0
BBX 5 5 1 2
BITMAP
20
20
F8
20
20
ENDCHAR
STARTCHAR char44
ENCODING 44
SWIDTH -1 0
DWIDTH 6 0
BBX 3 3 1 -1
BITMAP
60
20
C0
ENDCHAR
STARTCHAR char45
ENCODING 45
SWIDTH -1 0
DWIDTH 6 0
BBX 5 1 1 4
BITMAP
F8
ENDCHAR
STARTCHAR char46
ENCODING 46
SWIDTH -1 0
DWIDTH 6 0
BBX 2 2 2 0
BITMAP
C0
C0
ENDCHAR
STARTCHAR char47
ENCODING 47
SWIDTH -1 0
DWIDTH 6 0
BBX 5 9 1 0
BITMAP
08
08
10
10
20
40
40
80
80
ENDCHAR
STARTCHAR char48
ENCODING 48
SWIDTH -1 0
DWIDTH 6 0
BBX 5 9 1 0
BITMAP
70
88
88
98
A8
C8
88
88
70
ENDCHAR
STARTCHAR char49
ENCODING 49
SWIDTH -1 0
DWIDTH 6 0
BBX 3 9 1 0
BITMAP
20
60
A0
20
20
20
20
20
20
ENDCHAR
STARTCHAR char50
ENCODING 50
SWIDTH -1 0
DWIDTH 6 0
BBX 5 9 1 0
BITMAP
70
88
08
08
10
20
40
80
F8
ENDCHAR
STARTCHAR char51
ENCODING 51
SWIDTH -1 0
DWIDTH 6 0
BBX 5 9 1 0
BITMAP
F8
08
10
20
70
08
08
88
70
ENDCHAR
STARTCHAR char52
ENCODING 52
SWIDTH -1 0
DWIDTH 6 0
BBX 5 9 1 0
BITMAP
20
20
40
40
90
F8
10
10
10
ENDCHAR
STARTCHAR char53
ENCODING 53
SWIDTH -1 0
DWIDTH 6 0
BBX 6 9 0 0
BITMAP
7C
40
40
40
78
04
04
44
38
ENDCHAR
STARTCHAR char54
ENCODING 54
SWIDTH -1 0
DWIDTH 6 0
BBX 5 9 1 0
BITMAP
30
40
40
F0
88
88
88
88
70
ENDCHAR
STARTCHAR char55
ENCODING 55
SWIDTH -1 0
DWIDTH 6 0
BBX 5 9 1 0
BITMAP
F8
10
10
20
20
20
40
40
40
ENDCHAR
STARTCHAR char56
ENCODING 56
SWIDTH -1 0
DWIDTH 6 0
BBX 5 9 1 0
BITMAP
70
88
88
88
70
88
88
88
70
ENDCHAR
STARTCHAR char57
ENCODING 57
SWIDTH -1 0
DWIDTH 6 0
BBX 5 9 1 0
BITMAP
70
88
88
88
88
70
10
20
C0
ENDCHAR
STARTCHAR char58
ENCODING 58
SWIDTH -1 0
DWIDTH 6 0
BBX 2 6 2 1
BITMAP
C0
C0
00
00
C0
C0
ENDCHAR
STARTCHAR char59
ENCODING 59
SWIDTH -1 0
DWIDTH 6 0
BBX 3 8 1 -1
BITMAP
60
60
00
00
00
60
20
C0
ENDCHAR
STARTCHAR char60
ENCODING 60
SWIDTH -1 0
DWIDTH 6 0
BBX 3 5 2 2
BITMAP
20
40
80
40
20
ENDCHAR
STARTCHAR char61
ENCODING 61
SWIDTH -1 0
DWIDTH 6 0
BBX 6 4 1 2
BITMAP
F8
00
00
F8
ENDCHAR
STARTCHAR char62
ENCODING 62
SWIDTH -1 0
DWIDTH 6 0
BBX 3 5 2 2
BITMAP
80
40
20
40
80
ENDCHAR
STARTCHAR char63
ENCODING 63
SWIDTH -1 0
DWIDTH 6 0
BBX 5 9 1 0
BITMAP
F0
08
08
08
70
40
00
40
40
ENDCHAR
STARTCHAR char64
ENCODING 64
SWIDTH -1 0
DWIDTH 6 0
BBX 5 8 1 0
BITMAP
30
48
88
A8
A8
98
40
30
ENDCHAR
STARTCHAR char65
ENCODING 65
SWIDTH -1 0
DWIDTH 6 0
BBX 5 9 1 0
BITMAP
20
50
88
88
88
F8
88
88
88
ENDCHAR
STARTCHAR char66
ENCODING 66
SWIDTH -1 0
DWIDTH 6 0
BBX 5 9 1 0
BITMAP
F0
88
88
88
F0
88
88
88
F0
ENDCHAR
STARTCHAR char67
ENCODING 67
SWIDTH -1 0
DWIDTH 6 0
BBX 5 9 1 0
BITMAP
30
48
80
80
80
80
80
88
70
ENDCHAR
STARTCHAR char68
ENCODING 68
SWIDTH -1 0
DWIDTH 6 0
BBX 5 9 1 0
BITMAP
E0
90
88
88
88
88
88
90
E0
ENDCHAR
STARTCHAR char69
ENCODING 69
SWIDTH -1 0
DWIDTH 6 0
BBX 5 9 1 0
BITMAP
F8
80
80
80
F0
80
80
80
F8
ENDCHAR
STARTCHAR char70
ENCODING 70
SWIDTH -1 0
DWIDTH 6 0
BBX 5 9 1 0
BITMAP
F8
80
80
80
F0
80
80
80
80
ENDCHAR
STARTCHAR char71
ENCODING 71
SWIDTH -1 0
DWIDTH 6 0
BBX 5 9 1 0
BITMAP
30
48
80
80
98
88
88
88
78
ENDCHAR
STARTCHAR char72
ENCODING 72
SWIDTH -1 0
DWIDTH 6 0
BBX 5 9 1 0
BITMAP
88
88
88
88
F8
88
88
88
88
ENDCHAR
STARTCHAR char73
ENCODING 73
SWIDTH -1 0
DWIDTH 6 0
BBX 3 9 2 0
BITMAP
E0
40
40
40
40
40
40
40
E0
ENDCHAR
STARTCHAR char74
ENCODING 74
SWIDTH -1 0
DWIDTH 6 0
BBX 5 9 0 0
BITMAP
38
10
10
10
10
10
10
10
60
ENDCHAR
STARTCHAR char75
ENCODING 75
SWIDTH -1 0
DWIDTH 6 0
BBX 5 9 1 0
BITMAP
88
88
90
90
A0
D0
90
88
88
ENDCHAR
STARTCHAR char76
ENCODING 76
SWIDTH -1 0
DWIDTH 6 0
BBX 6 9 0 0
BITMAP
40
40
40
40
40
40
40
40
7C
ENDCHAR
STARTCHAR char77
ENCODING 77
SWIDTH -1 0
DWIDTH 6 0
BBX 6 9 0 0
BITMAP
44
44
6C
6C
54
54
54
44
44
ENDCHAR
STARTCHAR char78
ENCODING 78
SWIDTH -1 0
DWIDTH 6 0
BBX 5 9 1 0
BITMAP
88
88
C8
C8
A8
98
98
88
88
ENDCHAR
STARTCHAR char79
ENCODING 79
SWIDTH -1 0
DWIDTH 6 0
BBX 5 9 1 0
BITMAP
70
88
88
88
88
88
88
88
70
ENDCHAR
STARTCHAR char80
ENCODING 80
SWIDTH -1 0
DWIDTH 6 0
BBX 6 9 0 0
BITMAP
78
44
44
44
44
78
40
40
40
ENDCHAR
STARTCHAR char81
ENCODING 81
SWIDTH -1 0
DWIDTH 6 0
BBX 5 10 1 -1
BITMAP
70
88
88
88
88
88
88
A8
70
18
ENDCHAR
STARTCHAR char82
ENCODING 82
SWIDTH -1 0
DWIDTH 6 0
BBX 5 9 1 0
BITMAP
F0
88
88
88
F0
90
90
88
88
ENDCHAR
STARTCHAR char83
ENCODING 83
SWIDTH -1 0
DWIDTH 6 0
BBX 5 9 1 0
BITMAP
70
88
80
80
70
08
08
88
70
ENDCHAR
STARTCHAR char84
ENCODING 84
SWIDTH -1 0
DWIDTH 6 0
BBX 6 9 1 0
BITMAP
F8
20
20
20
20
20
20
20
20
ENDCHAR
STARTCHAR char85
ENCODING 85
SWIDTH -1 0
DWIDTH 6 0
BBX 5 9 1 0
BITMAP
88
88
88
88
88
88
88
88
70
ENDCHAR
STARTCHAR char86
ENCODING 86
SWIDTH -1 0
DWIDTH 6 0
BBX 5 9 1 0
BITMAP
88
88
88
88
50
50
50
20
20
ENDCHAR
STARTCHAR char87
ENCODING 87
SWIDTH -1 0
DWIDTH 6 0
BBX 5 9 1 0
BITMAP
88
88
A8
A8
A8
A8
50
50
50
ENDCHAR
STARTCHAR char88
ENCODING 88
SWIDTH -1 0
DWIDTH 6 0
BBX 6 9 0 0
BITMAP
44
44
28
28
10
28
28
44
44
ENDCHAR
STARTCHAR char89
ENCODING 89
SWIDTH -1 0
DWIDTH 6 0
BBX 5 9 1 0
BITMAP
88
88
88
50
50
20
20
20
20
ENDCHAR
STARTCHAR char90
ENCODING 90
SWIDTH -1 0
DWIDTH 6 0
BBX 5 9 1 0
BITMAP
F8
08
10
10
20
40
40
80
F8
ENDCHAR
STARTCHAR char91
ENCODING 91
SWIDTH -1 0
DWIDTH 6 0
BBX 3 11 3 -1
BITMAP
E0
80
80
80
80
80
80
80
80
80
E0
ENDCHAR
STARTCHAR char92
ENCODING 92
SWIDTH -1 0
DWIDTH 6 0
BBX 6 9 0 0
BITMAP
40
40
20
20
10
08
08
04
04
ENDCHAR
STARTCHAR char93
ENCODING 93
SWIDTH -1 0
DWIDTH 6 0
BBX 4 11 0 -1
BITMAP
70
10
10
10
10
10
10
10
10
10
70
ENDCHAR
STARTCHAR char94
ENCODING 94
SWIDTH -1 0
DWIDTH 6 0
BBX 5 9 1 0
BITMAP
20
70
A8
20
20
20
20
20
20
ENDCHAR
STARTCHAR char95
ENCODING 95
SWIDTH -1 0
DWIDTH 6 0
BBX 6 1 0 0
BITMAP
7C
ENDCHAR
STARTCHAR char96
ENCODING 96
SWIDTH -1 0
DWIDTH 6 0
BBX 3 3 2 7
BITMAP
80
40
20
ENDCHAR
STARTCHAR char97
ENCODING 97
SWIDTH -1 0
DWIDTH 6 0
BBX 5 7 1 0
BITMAP
70
08
08
78
88
88
78
ENDCHAR
STARTCHAR char98
ENCODING 98
SWIDTH -1 0
DWIDTH 6 0
BBX 6 10 0 0
BITMAP
40
40
40
58
64
44
44
44
44
78
ENDCHAR
STARTCHAR char99
ENCODING 99
SWIDTH -1 0
DWIDTH 6 0
BBX 5 7 1 0
BITMAP
70
88
80
80
80
88
70
ENDCHAR
STARTCHAR char100
ENCODING 100
SWIDTH -1 0
DWIDTH 6 0
BBX 5 10 1 0
BITMAP
08
08
08
78
88
88
88
88
98
68
ENDCHAR
STARTCHAR char101
ENCODING 101
SWIDTH -1 0
DWIDTH 6 0
BBX 5 7 1 0
BITMAP
70
88
88
F8
80
88
70
ENDCHAR
STARTCHAR char102
ENCODING 102
SWIDTH -1 0
DWIDTH 6 0
BBX 4 10 1 0
BITMAP
30
40
40
F0
40
40
40
40
40
40
ENDCHAR
STARTCHAR char103
ENCODING 103
SWIDTH -1 0
DWIDTH 6 0
BBX 5 10 1 -3
BITMAP
78
88
88
88
88
98
68
08
08
70
ENDCHAR
STARTCHAR char104
ENCODING 104
SWIDTH -1 0
DWIDTH 6 0
BBX 6 10 0 0
BITMAP
40
40
40
58
64
44
44
44
44
44
ENDCHAR
STARTCHAR char105
ENCODING 105
SWIDTH -1 0
DWIDTH 6 0
BBX 2 10 2 0
BITMAP
40
40
00
C0
40
40
40
40
40
40
ENDCHAR
STARTCHAR char106
ENCODING 106
SWIDTH -1 0
DWIDTH 6 0
BBX 3 13 1 -3
BITMAP
20
20
00
E0
20
20
20
20
20
20
20
20
40
ENDCHAR
STARTCHAR char107
ENCODING 107
SWIDTH -1 0
DWIDTH 6 0
BBX 5 10 1 0
BITMAP
80
80
80
88
90
A0
E0
90
88
88
ENDCHAR
STARTCHAR char108
ENCODING 108
SWIDTH -1 0
DWIDTH 6 0
BBX 2 10 2 0
BITMAP
C0
40
40
40
40
40
40
40
40
40
ENDCHAR
STARTCHAR char109
ENCODING 109
SWIDTH -1 0
DWIDTH 6 0
BBX 6 7 0 0
BITMAP
68
54
54
54
54
54
54
ENDCHAR
STARTCHAR char110
ENCODING 110
SWIDTH -1 0
DWIDTH 6 0
BBX 6 7 0 0
BITMAP
58
64
44
44
44
44
44
ENDCHAR
STARTCHAR char111
ENCODING 111
SWIDTH -1 0
DWIDTH 6 0
BBX 6 7 0 0
BITMAP
38
44
44
44
44
44
38
ENDCHAR
STARTCHAR char112
ENCODING 112
SWIDTH -1 0
DWIDTH 6 0
BBX 5 10 1 -3
BITMAP
B0
C8
88
88
88
88
F0
80
80
80
ENDCHAR
STARTCHAR char113
ENCODING 113
SWIDTH -1 0
DWIDTH 6 0
BBX 5 10 1 -3
BITMAP
78
88
88
88
88
98
68
08
08
08
ENDCHAR
STARTCHAR char114
ENCODING 114
SWIDTH -1 0
DWIDTH 6 0
BBX 4 7 2 0
BITMAP
B0
C0
80
80
80
80
80
ENDCHAR
STARTCHAR char115
ENCODING 115
SWIDTH -1 0
DWIDTH 6 0
BBX 5 7 1 0
BITMAP
78
80
80
70
08
08
F0
ENDCHAR
STARTCHAR char116
ENCODING 116
SWIDTH -1 0
DWIDTH 6 0
BBX 4 9 1 0
BITMAP
40
40
F0
40
40
40
40
40
30
ENDCHAR
STARTCHAR char117
ENCODING 117
SWIDTH -1 0
DWIDTH 6 0
BBX 6 7 0 0
BITMAP
44
44
44
44
44
4C
34
ENDCHAR
STARTCHAR char118
ENCODING 118
SWIDTH -1 0
DWIDTH 6 0
BBX 6 7 0 0
BITMAP
44
44
44
28
28
10
10
ENDCHAR
STARTCHAR char119
ENCODING 119
SWIDTH -1 0
DWIDTH 6 0
BBX 5 7 1 0
BITMAP
88
A8
A8
A8
50
50
50
ENDCHAR
STARTCHAR char120
ENCODING 120
SWIDTH -1 0
DWIDTH 6 0
BBX 5 7 1 0
BITMAP
88
88
50
20
50
88
88
ENDCHAR
STARTCHAR char121
ENCODING 121
SWIDTH -1 0
DWIDTH 6 0
BBX 5 10 1 -3
BITMAP
88
88
88
88
50
50
20
20
40
80
ENDCHAR
STARTCHAR char122
ENCODING 122
SWIDTH -1 0
DWIDTH 6 0
BBX 6 7 0 0
BITMAP
7C
08
08
10
20
20
7C
ENDCHAR
STARTCHAR char123
ENCODING 123
SWIDTH -1 0
DWIDTH 6 0
BBX 6 11 0 -1
BITMAP
0C
10
10
08
08
30
08
08
10
10
0C
ENDCHAR
STARTCHAR char124
ENCODING 124
SWIDTH -1 0
DWIDTH 6 0
BBX 1 9 3 0
BITMAP
80
80
80
80
80
80
80
80
80
ENDCHAR
STARTCHAR char125
ENCODING 125
SWIDTH -1 0
DWIDTH 6 0
BBX 4 11 1 -1
BITMAP
C0
20
20
40
40
30
40
40
20
20
C0
ENDCHAR
STARTCHAR char126
ENCODING 126
SWIDTH -1 0
DWIDTH 6 0
BBX 6 2 0 7
BITMAP
64
98
ENDCHAR
STARTCHAR char161
ENCODING 161
SWIDTH -1 0
DWIDTH 6 0
BBX 1 9 3 0
BITMAP
80
80
00
00
80
80
80
80
80
ENDCHAR
STARTCHAR char162
ENCODING 162
SWIDTH -1 0
DWIDTH 6 0
BBX 5 7 1 0
BITMAP
20
78
A0
A0
A0
78
20
ENDCHAR
STARTCHAR char163
ENCODING 163
SWIDTH -1 0
DWIDTH 6 0
BBX 5 8 1 0
BITMAP
38
40
40
40
F0
40
40
F8
ENDCHAR
STARTCHAR char164
ENCODING 164
SWIDTH -1 0
DWIDTH 6 0
BBX 6 6 0 0
BITMAP
84
78
48
48
78
84
ENDCHAR
STARTCHAR char165
ENCODING 165
SWIDTH -1 0
DWIDTH 6 0
BBX 5 9 1 0
BITMAP
88
88
88
50
F8
20
F8
20
20
ENDCHAR
STARTCHAR char166
ENCODING 166
SWIDTH -1 0
DWIDTH 6 0
BBX 4 9 0 0
BITMAP
10
10
10
10
00
10
10
10
10
ENDCHAR
STARTCHAR char167
ENCODING 167
SWIDTH -1 0
DWIDTH 6 0
BBX 5 10 1 -1
BITMAP
30
40
40
70
88
88
70
10
10
60
ENDCHAR
STARTCHAR char168
ENCODING 168
SWIDTH -1 0
DWIDTH 6 0
BBX 4 2 2 6
BITMAP
90
90
ENDCHAR
STARTCHAR char169
ENCODING 169
SWIDTH -1 0
DWIDTH 6 0
BBX 6 8 0 0
BITMAP
48
84
B4
A4
A4
B4
84
48
ENDCHAR
STARTCHAR char170
ENCODING 170
SWIDTH -1 0
DWIDTH 6 0
BBX 4 5 1 4
BITMAP
60
10
70
90
70
ENDCHAR
STARTCHAR char171
ENCODING 171
SWIDTH -1 0
DWIDTH 6 0
BBX 6 5 0 2
BITMAP
24
48
90
48
24
ENDCHAR
STARTCHAR char172
ENCODING 172
SWIDTH -1 0
DWIDTH 6 0
BBX 5 3 1 1
BITMAP
F8
08
08
ENDCHAR
STARTCHAR char173
ENCODING 173
SWIDTH -1 0
DWIDTH 6 0
BBX 3 1 2 3
BITMAP
E0
ENDCHAR
STARTCHAR char174
ENCODING 174
SWIDTH -1 0
DWIDTH 6 0
BBX 3 5 2 4
BITMAP
C0
A0
A0
C0
A0
ENDCHAR
STARTCHAR char175
ENCODING 175
SWIDTH -1 0
DWIDTH 6 0
BBX 4 1 1 8
BITMAP
F0
ENDCHAR
STARTCHAR char176
ENCODING 176
SWIDTH -1 0
DWIDTH 6 0
BBX 4 4 1 6
BITMAP
60
90
90
60
ENDCHAR
STARTCHAR char177
ENCODING 177
SWIDTH -1 0
DWIDTH 6 0
BBX 6 7 0 0
BITMAP
10
10
7C
10
10
00
7C
ENDCHAR
STARTCHAR char178
ENCODING 178
SWIDTH -1 0
DWIDTH 6 0
BBX 4 6 1 3
BITMAP
60
90
10
60
80
F0
ENDCHAR
STARTCHAR char179
ENCODING 179
SWIDTH -1 0
DWIDTH 6 0
BBX 4 6 1 3
BITMAP
F0
20
60
10
10
E0
ENDCHAR
STARTCHAR char180
ENCODING 180
SWIDTH -1 0
DWIDTH 6 0
BBX 2 2 2 7
BITMAP
40
80
ENDCHAR
STARTCHAR char181
ENCODING 181
SWIDTH -1 0
DWIDTH 6 0
BBX 5 10 1 -3
BITMAP
88
88
88
88
88
D8
A8
80
80
80
ENDCHAR
STARTCHAR char182
ENCODING 182
SWIDTH -1 0
DWIDTH 6 0
BBX 5 9 1 0
BITMAP
78
E8
E8
E8
68
28
28
28
28
ENDCHAR
STARTCHAR char183
ENCODING 183
SWIDTH -1 0
DWIDTH 6 0
BBX 2 2 2 0
BITMAP
C0
C0
ENDCHAR
STARTCHAR char184
ENCODING 184
SWIDTH -1 0
DWIDTH 6 0
BBX 4 2 0 -2
BITMAP
10
60
ENDCHAR
STARTCHAR char185
ENCODING 185
SWIDTH -1 0
DWIDTH 6 0
BBX 3 6 1 3
BITMAP
20
60
A0
20
20
20
ENDCHAR
STARTCHAR char186
ENCODING 186
SWIDTH -1 0
DWIDTH 6 0
BBX 4 6 1 3
BITMAP
60
90
90
90
90
60
ENDCHAR
STARTCHAR char187
ENCODING 187
SWIDTH -1 0
DWIDTH 6 0
BBX 6 5 0 2
BITMAP
90
48
24
48
90
ENDCHAR
STARTCHAR char188
ENCODING 188
SWIDTH -1 0
DWIDTH 6 0
BBX 6 10 0 -1
BITMAP
20
60
20
2C
30
C8
18
28
3C
08
ENDCHAR
STARTCHAR char189
ENCODING 189
SWIDTH -1 0
DWIDTH 6 0
BBX 6 10 0 -1
BITMAP
20
60
20
2C
30
D8
04
18
20
3C
ENDCHAR
STARTCHAR char190
ENCODING 190
SWIDTH -1 0
DWIDTH 6 0
BBX 6 11 0 -1
BITMAP
F0
20
70
10
EC
30
C8
18
28
3C
08
ENDCHAR
STARTCHAR char191
ENCODING 191
SWIDTH -1 0
DWIDTH 6 0
BBX 5 9 1 0
BITMAP
40
40
00
40
70
08
08
08
F0
ENDCHAR
STARTCHAR char192
ENCODING 192
SWIDTH -1 0
DWIDTH 6 0
BBX 5 10 1 0
BITMAP
40
20
00
70
88
88
F8
88
88
88
ENDCHAR
STARTCHAR char193
ENCODING 193
SWIDTH -1 0
DWIDTH 6 0
BBX 5 10 1 0
BITMAP
10
20
00
70
88
88
F8
88
88
88
ENDCHAR
STARTCHAR char194
ENCODING 194
SWIDTH -1 0
DWIDTH 6 0
BBX 5 10 1 0
BITMAP
20
50
00
70
88
88
F8
88
88
88
ENDCHAR
STARTCHAR char195
ENCODING 195
SWIDTH -1 0
DWIDTH 6 0
BBX 5 10 1 0
BITMAP
68
B0
00
70
88
88
F8
88
88
88
ENDCHAR
STARTCHAR char196
ENCODING 196
SWIDTH -1 0
DWIDTH 6 0
BBX 5 10 1 0
BITMAP
50
50
00
70
88
88
F8
88
88
88
ENDCHAR
STARTCHAR char197
ENCODING 197
SWIDTH -1 0
DWIDTH 6 0
BBX 5 10 1 0
BITMAP
20
50
20
70
88
88
F8
88
88
88
ENDCHAR
STARTCHAR char198
ENCODING 198
SWIDTH -1 0
DWIDTH 6 0
BBX 5 9 1 0
BITMAP
38
60
A0
A0
B8
E0
A0
A0
B8
ENDCHAR
STARTCHAR char199
ENCODING 199
SWIDTH -1 0
DWIDTH 6 0
BBX 5 12 1 -3
BITMAP
30
48
80
80
80
80
80
88
70
20
20
40
ENDCHAR
STARTCHAR char200
ENCODING 200
SWIDTH -1 0
DWIDTH 6 0
BBX 5 10 1 0
BITMAP
40
20
00
F8
80
80
F0
80
80
F8
ENDCHAR
STARTCHAR char201
ENCODING 201
SWIDTH -1 0
DWIDTH 6 0
BBX 5 10 1 0
BITMAP
10
20
00
F8
80
80
F0
80
80
F8
ENDCHAR
STARTCHAR char202
ENCODING 202
SWIDTH -1 0
DWIDTH 6 0
BBX 5 10 1 0
BITMAP
20
50
00
F8
80
80
F0
80
80
F8
ENDCHAR
STARTCHAR char203
ENCODING 203
SWIDTH -1 0
DWIDTH 6 0
BBX 5 10 1 0
BITMAP
50
50
00
F8
80
80
F0
80
80
F8
ENDCHAR
STARTCHAR char204
ENCODING 204
SWIDTH -1 0
DWIDTH 6 0
BBX 3 10 2 0
BITMAP
80
40
00
E0
40
40
40
40
40
E0
ENDCHAR
STARTCHAR char205
ENCODING 205
SWIDTH -1 0
DWIDTH 6 0
BBX 3 10 2 0
BITMAP
20
40
00
E0
40
40
40
40
40
E0
ENDCHAR
STARTCHAR 206
ENCODING 206
SWIDTH -1 0
DWIDTH 6 0
BBX 3 10 2 0
BITMAP
40
A0
00
E0
40
40
40
40
40
E0
ENDCHAR
STARTCHAR char207
ENCODING 207
SWIDTH -1 0
DWIDTH 6 0
BBX 3 10 2 0
BITMAP
A0
A0
00
E0
40
40
40
40
40
E0
ENDCHAR
STARTCHAR char208
ENCODING 208
SWIDTH -1 0
DWIDTH 6 0
BBX 5 9 1 0
BITMAP
60
50
48
48
E8
48
48
50
60
ENDCHAR
STARTCHAR char209
ENCODING 209
SWIDTH -1 0
DWIDTH 6 0
BBX 5 10 1 0
BITMAP
68
B0
00
88
88
C8
A8
98
88
88
ENDCHAR
STARTCHAR char210
ENCODING 210
SWIDTH -1 0
DWIDTH 6 0
BBX 5 10 1 0
BITMAP
40
20
00
70
88
88
88
88
88
70
ENDCHAR
STARTCHAR char211
ENCODING 211
SWIDTH -1 0
DWIDTH 6 0
BBX 5 10 1 0
BITMAP
10
20
00
70
88
88
88
88
88
70
ENDCHAR
STARTCHAR char212
ENCODING 212
SWIDTH -1 0
DWIDTH 6 0
BBX 5 10 1 0
BITMAP
20
50
00
70
88
88
88
88
88
70
ENDCHAR
STARTCHAR char213
ENCODING 213
SWIDTH -1 0
DWIDTH 6 0
BBX 5 10 1 0
BITMAP
68
B0
00
70
88
88
88
88
88
70
ENDCHAR
STARTCHAR char214
ENCODING 214
SWIDTH -1 0
DWIDTH 6 0
BBX 5 10 1 0
BITMAP
50
50
00
70
88
88
88
88
88
70
ENDCHAR
STARTCHAR char215
ENCODING 215
SWIDTH -1 0
DWIDTH 6 0
BBX 5 5 1 1
BITMAP
88
50
20
50
88
ENDCHAR
STARTCHAR char216
ENCODING 216
SWIDTH -1 0
DWIDTH 6 0
BBX 5 9 1 0
BITMAP
78
88
98
98
A8
C8
C8
88
F0
ENDCHAR
STARTCHAR char217
ENCODING 217
SWIDTH -1 0
DWIDTH 6 0
BBX 5 10 1 0
BITMAP
40
20
00
88
88
88
88
88
88
70
ENDCHAR
STARTCHAR char218
ENCODING 218
SWIDTH -1 0
DWIDTH 6 0
BBX 5 10 1 0
BITMAP
10
20
00
88
88
88
88
88
88
70
ENDCHAR
STARTCHAR char219
ENCODING 219
SWIDTH -1 0
DWIDTH 6 0
BBX 5 10 1 0
BITMAP
20
50
00
88
88
88
88
88
88
70
ENDCHAR
STARTCHAR char220
ENCODING 220
SWIDTH -1 0
DWIDTH 6 0
BBX 5 10 1 0
BITMAP
50
50
00
88
88
88
88
88
88
70
ENDCHAR
STARTCHAR char221
ENCODING 221
SWIDTH -1 0
DWIDTH 6 0
BBX 5 10 1 0
BITMAP
10
20
00
88
88
50
20
20
20
20
ENDCHAR
STARTCHAR char222
ENCODING 222
SWIDTH -1 0
DWIDTH 6 0
BBX 5 9 1 0
BITMAP
80
80
F0
88
88
88
F0
80
80
ENDCHAR
STARTCHAR char223
ENCODING 223
SWIDTH -1 0
DWIDTH 6 0
BBX 5 9 1 0
BITMAP
F0
90
A0
A0
90
88
88
88
90
ENDCHAR
STARTCHAR char224
ENCODING 224
SWIDTH -1 0
DWIDTH 6 0
BBX 5 10 1 0
BITMAP
20
10
00
70
08
08
78
88
88
78
ENDCHAR
STARTCHAR char225
ENCODING 225
SWIDTH -1 0
DWIDTH 6 0
BBX 5 10 1 0
BITMAP
10
20
00
70
08
08
78
88
88
78
ENDCHAR
STARTCHAR char226
ENCODING 226
SWIDTH -1 0
DWIDTH 6 0
BBX 5 10 1 0
BITMAP
20
50
00
70
08
08
78
88
88
78
ENDCHAR
STARTCHAR char227
ENCODING 227
SWIDTH -1 0
DWIDTH 6 0
BBX 5 10 1 0
BITMAP
68
B0
00
70
08
08
78
88
88
78
ENDCHAR
STARTCHAR char228
ENCODING 228
SWIDTH -1 0
DWIDTH 6 0
BBX 5 10 1 0
BITMAP
50
50
00
70
08
08
78
88
88
78
ENDCHAR
STARTCHAR char229
ENCODING 229
SWIDTH -1 0
DWIDTH 6 0
BBX 5 10 1 0
BITMAP
20
50
20
00
70
08
78
88
88
78
ENDCHAR
STARTCHAR char230
ENCODING 230
SWIDTH -1 0
DWIDTH 6 0
BBX 5 7 1 0
BITMAP
50
A8
28
78
A0
A8
D0
ENDCHAR
STARTCHAR char231
ENCODING 231
SWIDTH -1 0
DWIDTH 6 0
BBX 5 10 1 -3
BITMAP
70
88
80
80
80
88
70
20
20
40
ENDCHAR
STARTCHAR char232
ENCODING 232
SWIDTH -1 0
DWIDTH 6 0
BBX 5 10 1 0
BITMAP
40
20
00
70
88
88
F8
80
88
70
ENDCHAR
STARTCHAR char233
ENCODING 233
SWIDTH -1 0
DWIDTH 6 0
BBX 5 10 1 0
BITMAP
10
20
00
70
88
88
F8
80
88
70
ENDCHAR
STARTCHAR char234
ENCODING 234
SWIDTH -1 0
DWIDTH 6 0
BBX 5 10 1 0
BITMAP
20
50
00
70
88
88
F8
80
88
70
ENDCHAR
STARTCHAR char235
ENCODING 235
SWIDTH -1 0
DWIDTH 6 0
BBX 5 10 1 0
BITMAP
50
50
00
70
88
88
F8
80
88
70
ENDCHAR
STARTCHAR char236
ENCODING 236
SWIDTH -1 0
DWIDTH 6 0
BBX 2 10 2 0
BITMAP
80
40
00
C0
40
40
40
40
40
40
ENDCHAR
STARTCHAR char237
ENCODING 237
SWIDTH -1 0
DWIDTH 6 0
BBX 3 10 2 0
BITMAP
20
40
00
C0
40
40
40
40
40
40
ENDCHAR
STARTCHAR char238
ENCODING 238
SWIDTH -1 0
DWIDTH 6 0
BBX 3 10 2 0
BITMAP
40
A0
00
C0
40
40
40
40
40
40
ENDCHAR
STARTCHAR char239
ENCODING 239
SWIDTH -1 0
DWIDTH 6 0
BBX 3 9 2 0
BITMAP
A0
00
C0
40
40
40
40
40
40
ENDCHAR
STARTCHAR char240
ENCODING 240
SWIDTH -1 0
DWIDTH 6 0
BBX 5 10 1 0
BITMAP
50
60
90
30
48
88
88
88
90
60
ENDCHAR
STARTCHAR char241
ENCODING 241
SWIDTH -1 0
DWIDTH 6 0
BBX 5 10 1 0
BITMAP
68
B0
00
B0
C8
88
88
88
88
88
ENDCHAR
STARTCHAR char242
ENCODING 242
SWIDTH -1 0
DWIDTH 6 0
BBX 5 10 1 0
BITMAP
40
20
00
70
88
88
88
88
88
70
ENDCHAR
STARTCHAR char243
ENCODING 243
SWIDTH -1 0
DWIDTH 6 0
BBX 5 10 1 0
BITMAP
10
20
00
70
88
88
88
88
88
70
ENDCHAR
STARTCHAR char244
ENCODING 244
SWIDTH -1 0
DWIDTH 6 0
BBX 5 10 1 0
BITMAP
20
50
00
70
88
88
88
88
88
70
ENDCHAR
STARTCHAR char245
ENCODING 245
SWIDTH -1 0
DWIDTH 6 0
BBX 5 10 1 0
BITMAP
68
B0
00
70
88
88
88
88
88
70
ENDCHAR
STARTCHAR char246
ENCODING 246
SWIDTH -1 0
DWIDTH 6 0
BBX 5 10 1 0
BITMAP
50
50
00
70
88
88
88
88
88
70
ENDCHAR
STARTCHAR char247
ENCODING 247
SWIDTH -1 0
DWIDTH 6 0
BBX 5 7 1 0
BITMAP
20
20
00
F8
00
20
20
ENDCHAR
STARTCHAR char248
ENCODING 248
SWIDTH -1 0
DWIDTH 6 0
BBX 5 7 1 0
BITMAP
78
88
98
A8
C8
88
F0
ENDCHAR
STARTCHAR char249
ENCODING 249
SWIDTH -1 0
DWIDTH 6 0
BBX 5 10 1 0
BITMAP
40
20
00
88
88
88
88
88
98
68
ENDCHAR
STARTCHAR char250
ENCODING 250
SWIDTH -1 0
DWIDTH 6 0
BBX 5 10 1 0
BITMAP
10
20
00
88
88
88
88
88
98
68
ENDCHAR
STARTCHAR char251
ENCODING 251
SWIDTH -1 0
DWIDTH 6 0
BBX 5 10 1 0
BITMAP
20
50
00
88
88
88
88
88
98
68
ENDCHAR
STARTCHAR char252
ENCODING 252
SWIDTH -1 0
DWIDTH 6 0
BBX 5 10 1 0
BITMAP
50
50
00
88
88
88
88
88
98
68
ENDCHAR
STARTCHAR char253
ENCODING 253
SWIDTH -1 0
DWIDTH 6 0
BBX 5 13 1 -3
BITMAP
10
20
00
88
88
88
88
50
50
20
20
40
80
ENDCHAR
STARTCHAR char254
ENCODING 254
SWIDTH -1 0
DWIDTH 6 0
BBX 5 11 1 -3
BITMAP
80
80
B0
C8
88
88
88
F0
80
80
80
ENDCHAR
STARTCHAR char255
ENCODING 255
SWIDTH -1 0
DWIDTH 6 0
BBX 5 13 1 -3
BITMAP
50
50
00
88
88
88
88
50
50
20
20
40
80
ENDCHAR
ENDFONT
